{
  "accessors": [
    {
      "bufferView": 2,
      "componentType": 5126,
      "count": 36694,
      "max": [
        7.7920379638671875,
        4.9285211563110352,
        15.159339904785156
      ],
      "min": [
        -8.9365978240966797,
        -4.1194472312927246,
        0.32925799489021301
      ],
      "type": "VEC3"
    },
    {
      "bufferView": 2,
      "byteOffset": 440328,
      "componentType": 5126,
      "count": 36694,
      "max": [
        0.9999995231628418,
        0.99999988079071045,
        0.99999988079071045
      ],
      "min": [
        -1,
        -1,
        -1
      ],
      "type": "VEC3"
    },
    {
      "bufferView": 3,
      "componentType": 5126,
      "count": 36694,
      "max": [
        0.9992789626121521,
        0.99997615814208984,
        0.99999946355819702,
        1
      ],
      "min": [
        -0.9995606541633606,
        -0.9999966025352478,
        -0.99999016523361206,
        -1
      ],
      "type": "VEC4"
    },
    {
      "bufferView": 1,
      "componentType": 5126,
      "count": 36694,
      "max": [
        1,
        1
      ],
      "min": [
        0,
        0
      ],
      "type": "VEC2"
    },
    {
      "bufferView": 0,
      "componentType": 5125,
      "count": 203640,
      "max": [
        36693
      ],
      "min": [
        0
      ],
      "type": "SCALAR"
    }
  ],
  "asset": {
    "extras": {
      "author": "thesidekick (https://sketchfab.com/thesidekick)",
      "license": "CC-BY-4.0 (http://creativecommons.org/licenses/by/4.0/)",
      "source": "https://sketchfab.com/3d-models/guitar-amplifier-be36a541b49e4187966ba83a50a24138",
      "title": "Guitar Amplifier"
    },
    "generator": "Sketchfab-9.62.1",
    "version": "2.0"
  },
  "bufferViews": [
    {
      "buffer": 0,
      "byteLength": 814560,
      "byteOffset": 0,
      "name": "floatBufferViews",
      "target": 34963
    },
    {
      "buffer": 0,
      "byteLength": 293552,
      "byteOffset": 814560,
      "byteStride": 8,
      "name": "floatBufferViews",
      "target": 34962
    },
    {
      "buffer": 0,
      "byteLength": 880656,
      "byteOffset": 1108112,
      "byteStride": 12,
      "name": "floatBufferViews",
      "target": 34962
    },
    {
      "buffer": 0,
      "byteLength": 587104,
      "byteOffset": 1988768,
      "byteStride": 16,
      "name": "floatBufferViews",
      "target": 34962
    }
  ],
  "buffers": [
    {
      "byteLength": 2575872,
      "uri": "scene.bin"
    }
  ],
  "images": [
    {
      "uri": "textures/Orange_Guitar_Amplifier_baseColor.jpeg"
    },
    {
      "uri": "textures/Orange_Guitar_Amplifier_metallicRoughness.png"
    },
    {
      "uri": "textures/Orange_Guitar_Amplifier_normal.png"
    }
  ],
  "materials": [
    {
      "doubleSided": true,
      "emissiveFactor": [
        0.19951538662661664,
        0.19951538662661664,
        0.19951538662661664
      ],
      "emissiveTexture": {
        "index": 0,
        "texCoord": 0
      },
      "name": "Orange_Guitar_Amplifier",
      "normalTexture": {
        "index": 2,
        "scale": 1,
        "texCoord": 0
      },
      "occlusionTexture": {
        "index": 1,
        "strength": 1,
        "texCoord": 0
      },
      "pbrMetallicRoughness": {
        "baseColorFactor": [
          1,
          1,
          1,
          1
        ],
        "baseColorTexture": {
          "index": 0,
          "texCoord": 0
        },
        "metallicFactor": 0,
        "metallicRoughnessTexture": {
          "index": 1,
          "texCoord": 0
        },
        "roughnessFactor": 1
      }
    }
  ],
  "meshes": [
    {
      "primitives": [
        {
          "attributes": {
            "NORMAL": 1,
            "POSITION": 0,
            "TANGENT": 2,
            "TEXCOORD_0": 3
          },
          "indices": 4,
          "material": 0,
          "mode": 4
        }
      ]
    }
  ],
  "nodes": [
    {
      "children": [
        1
      ],
      "name": "RootNode (gltf orientation matrix)",
      "rotation": [
        -0.70710678118654746,
        -0,
        -0,
        0.70710678118654757
      ]
    },
    {
      "children": [
        2
      ],
      "name": "RootNode (model correction matrix)"
    },
    {
      "children": [
        3
      ],
      "name": "Orange_Guitar_Amplifier_SF.obj.cleaner.materialmerger.gles"
    },
    {
      "mesh": 0,
      "name": ""
    }
  ],
  "samplers": [
    {
      "magFilter": 9729,
      "minFilter": 9987,
      "wrapS": 10497,
      "wrapT": 10497
    }
  ],
  "scene": 0,
  "scenes": [
    {
      "name": "OSG_Scene",
      "nodes": [
        0
      ]
    }
  ],
  "textures": [
    {
      "sampler": 0,
      "source": 0
    },
    {
      "sampler": 0,
      "source": 1
    },
    {
      "sampler": 0,
      "source": 2
    }
  ]
}

